<svg xmlns="http://www.w3.org/2000/svg" xmlns:xlink="http://www.w3.org/1999/xlink" width="627" height="378" contentScriptType="application/ecmascript" contentStyleType="text/css" style="width:627px;height:378px" preserveAspectRatio="none" version="1.1" viewBox="0 0 627 378" zoomAndPan="magnify"><defs><filter id="fef4hhb0t968e" width="300%" height="300%" x="-1" y="-1"><feGaussianBlur result="blurOut" stdDeviation="2"/><feColorMatrix in="blurOut" result="blurOut2" type="matrix" values="0 0 0 0 0 0 0 0 0 0 0 0 0 0 0 0 0 0 .4 0"/><feOffset dx="4" dy="4" in="blurOut2" result="blurOut3"/><feBlend in="SourceGraphic" in2="blurOut3" mode="normal"/></filter></defs><g><rect id="ExternalTextureSource" width="174" height="52.805" x="6" y="176.5" fill="#FEFECE" filter="url(#fef4hhb0t968e)" style="stroke:#a80036;stroke-width:1.5"/><ellipse cx="21" cy="192.5" fill="#ADD1B2" rx="11" ry="11" style="stroke:#a80036;stroke-width:1"/><path d="M23.9688,198.1406 Q23.3906,198.4375 22.75,198.5781 Q22.1094,198.7344 21.4063,198.7344 Q18.9063,198.7344 17.5781,197.0938 Q16.2656,195.4375 16.2656,192.3125 Q16.2656,189.1875 17.5781,187.5313 Q18.9063,185.875 21.4063,185.875 Q22.1094,185.875 22.75,186.0313 Q23.4063,186.1875 23.9688,186.4844 L23.9688,189.2031 Q23.3438,188.625 22.75,188.3594 Q22.1563,188.0781 21.5313,188.0781 Q20.1875,188.0781 19.5,189.1563 Q18.8125,190.2188 18.8125,192.3125 Q18.8125,194.4063 19.5,195.4844 Q20.1875,196.5469 21.5313,196.5469 Q22.1563,196.5469 22.75,196.2813 Q23.3438,196 23.9688,195.4219 L23.9688,198.1406 Z"/><text x="35" y="196.654" fill="#000" font-family="sans-serif" font-size="12" lengthAdjust="spacingAndGlyphs" textLength="142">ExternalTextureSource</text><line style="stroke:#a80036;stroke-width:1.5" x1="7" x2="179" y1="208.5" y2="208.5"/><ellipse cx="17" cy="220.402" fill="#84BE84" rx="3" ry="3" style="stroke:#038048;stroke-width:1"/><text x="26" y="222.71" fill="#000" font-family="sans-serif" font-size="11" lengthAdjust="spacingAndGlyphs" textLength="86">setParameter()</text><rect id="ExternalTextureSourceManager" width="229" height="65.609" x="184.5" y="302" fill="#FEFECE" filter="url(#fef4hhb0t968e)" style="stroke:#a80036;stroke-width:1.5"/><ellipse cx="199.5" cy="318" fill="#ADD1B2" rx="11" ry="11" style="stroke:#a80036;stroke-width:1"/><path d="M202.4688,323.6406 Q201.8906,323.9375 201.25,324.0781 Q200.6094,324.2344 199.9063,324.2344 Q197.4063,324.2344 196.0781,322.5938 Q194.7656,320.9375 194.7656,317.8125 Q194.7656,314.6875 196.0781,313.0313 Q197.4063,311.375 199.9063,311.375 Q200.6094,311.375 201.25,311.5313 Q201.9063,311.6875 202.4688,311.9844 L202.4688,314.7031 Q201.8438,314.125 201.25,313.8594 Q200.6563,313.5781 200.0313,313.5781 Q198.6875,313.5781 198,314.6563 Q197.3125,315.7188 197.3125,317.8125 Q197.3125,319.9063 198,320.9844 Q198.6875,322.0469 200.0313,322.0469 Q200.6563,322.0469 201.25,321.7813 Q201.8438,321.5 202.4688,320.9219 L202.4688,323.6406 Z"/><text x="213.5" y="322.154" fill="#000" font-family="sans-serif" font-size="12" lengthAdjust="spacingAndGlyphs" textLength="197">ExternalTextureSourceManager</text><line style="stroke:#a80036;stroke-width:1.5" x1="185.5" x2="412.5" y1="334" y2="334"/><ellipse cx="195.5" cy="345.902" fill="#84BE84" rx="3" ry="3" style="stroke:#038048;stroke-width:1"/><text x="204.5" y="348.21" fill="#000" font-family="sans-serif" font-size="11" lengthAdjust="spacingAndGlyphs" textLength="155">setExternalTextureSource()</text><ellipse cx="195.5" cy="358.707" fill="#84BE84" rx="3" ry="3" style="stroke:#038048;stroke-width:1"/><text x="204.5" y="361.015" fill="#000" font-family="sans-serif" font-size="11" lengthAdjust="spacingAndGlyphs" textLength="103">setCurrentPlugin()</text><rect id="ScriptTranslator" width="167" height="78.414" x="215.5" y="164" fill="#FEFECE" filter="url(#fef4hhb0t968e)" style="stroke:#a80036;stroke-width:1.5"/><ellipse cx="246.25" cy="180" fill="#ADD1B2" rx="11" ry="11" style="stroke:#a80036;stroke-width:1"/><path d="M249.2188,185.6406 Q248.6406,185.9375 248,186.0781 Q247.3594,186.2344 246.6563,186.2344 Q244.1563,186.2344 242.8281,184.5938 Q241.5156,182.9375 241.5156,179.8125 Q241.5156,176.6875 242.8281,175.0313 Q244.1563,173.375 246.6563,173.375 Q247.3594,173.375 248,173.5313 Q248.6563,173.6875 249.2188,173.9844 L249.2188,176.7031 Q248.5938,176.125 248,175.8594 Q247.4063,175.5781 246.7813,175.5781 Q245.4375,175.5781 244.75,176.6563 Q244.0625,177.7188 244.0625,179.8125 Q244.0625,181.9063 244.75,182.9844 Q245.4375,184.0469 246.7813,184.0469 Q247.4063,184.0469 248,183.7813 Q248.5938,183.5 249.2188,182.9219 L249.2188,185.6406 Z"/><text x="263.75" y="184.154" fill="#000" font-family="sans-serif" font-size="12" lengthAdjust="spacingAndGlyphs" textLength="100">ScriptTranslator</text><line style="stroke:#a80036;stroke-width:1.5" x1="216.5" x2="381.5" y1="196" y2="196"/><ellipse cx="226.5" cy="207.902" fill="#000" rx="3" ry="3" style="stroke:#000;stroke-width:1"/><text x="235.5" y="210.21" fill="#000" font-family="sans-serif" font-size="11" lengthAdjust="spacingAndGlyphs" textLength="138">Set &quot;video&quot; plugin active</text><ellipse cx="226.5" cy="220.707" fill="#000" rx="3" ry="3" style="stroke:#000;stroke-width:1"/><text x="235.5" y="223.015" fill="#000" font-family="sans-serif" font-size="11" lengthAdjust="spacingAndGlyphs" textLength="141">Parse &amp; Set parameters</text><ellipse cx="226.5" cy="233.512" fill="#000" rx="3" ry="3" style="stroke:#000;stroke-width:1"/><text x="235.5" y="235.82" fill="#000" font-family="sans-serif" font-size="11" lengthAdjust="spacingAndGlyphs" textLength="85">Create Texture</text><rect id="Plugin_ffmpegVideoSystem" width="199" height="52.805" x="417.5" y="176.5" fill="#FEFECE" filter="url(#fef4hhb0t968e)" style="stroke:#a80036;stroke-width:1.5"/><ellipse cx="432.5" cy="192.5" fill="#ADD1B2" rx="11" ry="11" style="stroke:#a80036;stroke-width:1"/><path d="M435.4688,198.1406 Q434.8906,198.4375 434.25,198.5781 Q433.6094,198.7344 432.9063,198.7344 Q430.4063,198.7344 429.0781,197.0938 Q427.7656,195.4375 427.7656,192.3125 Q427.7656,189.1875 429.0781,187.5313 Q430.4063,185.875 432.9063,185.875 Q433.6094,185.875 434.25,186.0313 Q434.9063,186.1875 435.4688,186.4844 L435.4688,189.2031 Q434.8438,188.625 434.25,188.3594 Q433.6563,188.0781 433.0313,188.0781 Q431.6875,188.0781 431,189.1563 Q430.3125,190.2188 430.3125,192.3125 Q430.3125,194.4063 431,195.4844 Q431.6875,196.5469 433.0313,196.5469 Q433.6563,196.5469 434.25,196.2813 Q434.8438,196 435.4688,195.4219 L435.4688,198.1406 Z"/><text x="446.5" y="196.654" fill="#000" font-family="sans-serif" font-size="12" lengthAdjust="spacingAndGlyphs" textLength="167">Plugin_ffmpegVideoSystem</text><line style="stroke:#a80036;stroke-width:1.5" x1="418.5" x2="615.5" y1="208.5" y2="208.5"/><ellipse cx="428.5" cy="220.402" fill="#84BE84" rx="3" ry="3" style="stroke:#038048;stroke-width:1"/><text x="437.5" y="222.71" fill="#000" font-family="sans-serif" font-size="11" lengthAdjust="spacingAndGlyphs" textLength="83">dllStartPlugin()</text><rect style="stroke:#a80036;stroke-width:1.5" width="184" height="60.891" x="425" y="25.5" fill="#FEFECE" filter="url(#fef4hhb0t968e)"/><text x="483" y="38.639" fill="#000" font-family="sans-serif" font-size="12" lengthAdjust="spacingAndGlyphs" textLength="68">Plugins.cfg</text><line style="stroke:#a80036;stroke-width:1.5" x1="426" x2="608" y1="43.469" y2="43.469"/><text x="431" y="56.751" fill="#000" font-family="sans-serif" font-size="10" lengthAdjust="spacingAndGlyphs" textLength="172">Plugin=Plugin_ffmpegVideoSystem</text><text x="431" y="68.392" fill="#000" font-family="sans-serif" font-size="10" lengthAdjust="spacingAndGlyphs" textLength="43">Plugin=..</text><text x="431" y="80.032" fill="#000" font-family="sans-serif" font-size="10" lengthAdjust="spacingAndGlyphs" textLength="43">Plugin=..</text><rect style="stroke:#a80036;stroke-width:1.5" width="154" height="95.813" x="222" y="8" fill="#FEFECE" filter="url(#fef4hhb0t968e)"/><text x="229" y="21.139" fill="#000" font-family="sans-serif" font-size="12" lengthAdjust="spacingAndGlyphs" textLength="140">Sample Material Script</text><line style="stroke:#a80036;stroke-width:1.5" x1="223" x2="375" y1="25.969" y2="25.969"/><text x="228" y="39.251" fill="#000" font-family="sans-serif" font-size="10" lengthAdjust="spacingAndGlyphs" textLength="22">pass</text><text x="228" y="50.892" fill="#000" font-family="sans-serif" font-size="10" lengthAdjust="spacingAndGlyphs" textLength="6">{</text><text x="252" y="62.532" fill="#000" font-family="sans-serif" font-size="10" lengthAdjust="spacingAndGlyphs" textLength="95">filename test.mpeg</text><text x="252" y="74.173" fill="#000" font-family="sans-serif" font-size="10" lengthAdjust="spacingAndGlyphs" textLength="76">play_mode play</text><text x="252" y="85.814" fill="#000" font-family="sans-serif" font-size="10" lengthAdjust="spacingAndGlyphs" textLength="77">sound_mode on</text><text x="228" y="97.454" fill="#000" font-family="sans-serif" font-size="10" lengthAdjust="spacingAndGlyphs" textLength="6">}</text><path id="ExternalTextureSource-ExternalTextureSourceManager" fill="none" d="M134.6872,229.7122 C163.7131,248.3113 202.9528,273.4552 235.8066,294.5072" style="stroke:#a80036;stroke-width:1"/><polygon fill="#FFF" points="247.134 301.765 244.24 295.16 237.03 295.291 239.924 301.896 247.134 301.765" style="stroke:#a80036;stroke-width:1"/><path id="Plugins.cfg-Plugin_ffmpegVideoSystem" fill="none" d="M517,86.816 C517,113.2516 517,150.9607 517,176.1728" style="stroke:#a80036;stroke-width:1"/><path id="Plugin_ffmpegVideoSystem-ExternalTextureSourceManager" fill="none" d="M473.1467,229.5534 C440.0512,249.5928 394.2993,277.2958 357.9956,299.2779" style="stroke:#a80036;stroke-width:1"/><polygon fill="#A80036" points="353.617 301.929 363.387 300.689 357.894 299.339 359.243 293.846 353.617 301.929" style="stroke:#a80036;stroke-width:1"/><path id="ScriptTranslator-ExternalTextureSourceManager" fill="none" d="M299,242.247 C299,259.4648 299,279.6067 299,296.7134" style="stroke:#a80036;stroke-width:1"/><polygon fill="#A80036" points="299 301.918 303 292.918 299 296.918 295 292.918 299 301.918" style="stroke:#a80036;stroke-width:1"/><path id="material-ScriptTranslator" fill="none" d="M299,104.1333 C299,123.3919 299,145.2989 299,163.5886" style="stroke:#a80036;stroke-width:1"/></g></svg>